<mxfile host="app.diagrams.net" modified="2022-03-29T07:02:35.281Z" agent="5.0 (Windows NT 10.0; Win64; x64) AppleWebKit/537.36 (KHTML, like Gecko) Chrome/99.0.4844.82 Safari/537.36" etag="kAt9aAABF9qn_MAaHiD9" version="17.2.4" type="github">
  <diagram id="5qba4FfLZ8HYJdbQvuyF" name="Page-1">
    <mxGraphModel dx="1422" dy="794" grid="1" gridSize="10" guides="1" tooltips="1" connect="1" arrows="1" fold="1" page="1" pageScale="1" pageWidth="1920" pageHeight="1200" math="0" shadow="0">
      <root>
        <mxCell id="0" />
        <mxCell id="1" parent="0" />
        <mxCell id="pFuFgz-WHhLCR6n6L1xY-14" value="&lt;&lt;abstract&gt;&gt;&#xa;BaseController&#xa;" style="swimlane;fontStyle=3;align=center;verticalAlign=top;childLayout=stackLayout;horizontal=1;startSize=50;horizontalStack=0;resizeParent=1;resizeParentMax=0;resizeLast=0;collapsible=1;marginBottom=0;fontSize=13;" parent="1" vertex="1">
          <mxGeometry x="470" y="100" width="390" height="360" as="geometry">
            <mxRectangle x="90" y="40" width="120" height="30" as="alternateBounds" />
          </mxGeometry>
        </mxCell>
        <mxCell id="pFuFgz-WHhLCR6n6L1xY-15" value="- JSON_VIEW : String&#xa;&#xa;-PREFIX_THYEM_LEAF_VIEW : String" style="text;strokeColor=none;fillColor=none;align=left;verticalAlign=middle;spacingLeft=4;spacingRight=4;overflow=hidden;rotatable=0;points=[[0,0.5],[1,0.5]];portConstraint=eastwest;fontSize=13;" parent="pFuFgz-WHhLCR6n6L1xY-14" vertex="1">
          <mxGeometry y="50" width="390" height="70" as="geometry" />
        </mxCell>
        <mxCell id="pFuFgz-WHhLCR6n6L1xY-16" value="" style="line;strokeWidth=1;fillColor=none;align=left;verticalAlign=middle;spacingTop=-1;spacingLeft=3;spacingRight=3;rotatable=0;labelPosition=right;points=[];portConstraint=eastwest;" parent="pFuFgz-WHhLCR6n6L1xY-14" vertex="1">
          <mxGeometry y="120" width="390" height="10" as="geometry" />
        </mxCell>
        <mxCell id="pFuFgz-WHhLCR6n6L1xY-17" value="+toJsonView(String) : String&#xa;+toJspView(String): String&#xa;+toThyemleafView(String) : String&#xa;+formViewForJsp(HttpServletRequest) : String&#xa;+formViewForThyemleaf(HttpServletRequest) : String&#xa;+getCurrentPage(String) : Integer&#xa;&#xa;" style="text;strokeColor=none;fillColor=none;align=left;verticalAlign=top;spacingLeft=4;spacingRight=4;overflow=hidden;rotatable=0;points=[[0,0.5],[1,0.5]];portConstraint=eastwest;fontSize=14;fontStyle=0" parent="pFuFgz-WHhLCR6n6L1xY-14" vertex="1">
          <mxGeometry y="130" width="390" height="130" as="geometry" />
        </mxCell>
        <mxCell id="pFuFgz-WHhLCR6n6L1xY-43" value="&lt;span style=&quot;color: rgb(0 , 0 , 0) ; font-family: &amp;#34;helvetica&amp;#34; ; font-size: 14px ; font-style: normal ; font-weight: 400 ; letter-spacing: normal ; text-indent: 0px ; text-transform: none ; word-spacing: 0px ; background-color: rgb(248 , 249 , 250) ; display: inline ; float: none&quot;&gt;&amp;nbsp;+setModelWithkendoList(ModelMap,PageInfo&amp;lt;?&amp;gt;) : void&lt;/span&gt;&lt;br style=&quot;padding: 0px ; margin: 0px ; color: rgb(0 , 0 , 0) ; font-family: &amp;#34;helvetica&amp;#34; ; font-size: 14px ; font-style: normal ; font-weight: 400 ; letter-spacing: normal ; text-indent: 0px ; text-transform: none ; word-spacing: 0px ; background-color: rgb(248 , 249 , 250)&quot;&gt;&lt;br style=&quot;padding: 0px ; margin: 0px ; color: rgb(0 , 0 , 0) ; font-family: &amp;#34;helvetica&amp;#34; ; font-size: 14px ; font-style: normal ; font-weight: 400 ; letter-spacing: normal ; text-indent: 0px ; text-transform: none ; word-spacing: 0px ; background-color: rgb(248 , 249 , 250)&quot;&gt;&lt;span style=&quot;color: rgb(0 , 0 , 0) ; font-family: &amp;#34;helvetica&amp;#34; ; font-size: 14px ; font-style: normal ; font-weight: 400 ; letter-spacing: normal ; text-indent: 0px ; text-transform: none ; word-spacing: 0px ; background-color: rgb(248 , 249 , 250) ; display: inline ; float: none&quot;&gt;&amp;nbsp;+setModelWithkendoList(ModelMap,Page&amp;lt;?&amp;gt;) : void&lt;/span&gt;" style="text;whiteSpace=wrap;html=1;fontSize=14;fontStyle=4;align=left;verticalAlign=top;" parent="pFuFgz-WHhLCR6n6L1xY-14" vertex="1">
          <mxGeometry y="260" width="390" height="100" as="geometry" />
        </mxCell>
        <mxCell id="pFuFgz-WHhLCR6n6L1xY-34" value="UserInfoController" style="swimlane;fontStyle=1;align=center;verticalAlign=middle;childLayout=stackLayout;horizontal=1;startSize=70;horizontalStack=0;resizeParent=1;resizeParentMax=0;resizeLast=0;collapsible=1;marginBottom=0;fontSize=13;" parent="1" vertex="1">
          <mxGeometry x="220" y="580" width="370" height="260" as="geometry" />
        </mxCell>
        <mxCell id="pFuFgz-WHhLCR6n6L1xY-35" value="- userInfoService : UserInfoService" style="text;strokeColor=none;fillColor=none;align=left;verticalAlign=middle;spacingLeft=4;spacingRight=4;overflow=hidden;rotatable=0;points=[[0,0.5],[1,0.5]];portConstraint=eastwest;fontSize=13;fontStyle=1" parent="pFuFgz-WHhLCR6n6L1xY-34" vertex="1">
          <mxGeometry y="70" width="370" height="60" as="geometry" />
        </mxCell>
        <mxCell id="pFuFgz-WHhLCR6n6L1xY-36" value="" style="line;strokeWidth=1;fillColor=none;align=left;verticalAlign=middle;spacingTop=-1;spacingLeft=3;spacingRight=3;rotatable=0;labelPosition=right;points=[];portConstraint=eastwest;fontSize=13;" parent="pFuFgz-WHhLCR6n6L1xY-34" vertex="1">
          <mxGeometry y="130" width="370" height="8" as="geometry" />
        </mxCell>
        <mxCell id="pFuFgz-WHhLCR6n6L1xY-37" value="+getUserList(ModelMap, UserInfoDto) : ModelMap&#xa;+getUserRoleList(ModelMap, UserAuthDto) &#xa;: ResponseEntity&lt;Object&gt;&#xa;+getPopUserList(ModelMap, KendoPageVO) : ModelMap&#xa;+setUserSave(ModelMap, UserInfoDto) : int" style="text;strokeColor=none;fillColor=none;align=left;verticalAlign=top;spacingLeft=4;spacingRight=4;overflow=hidden;rotatable=0;points=[[0,0.5],[1,0.5]];portConstraint=eastwest;fontSize=14;" parent="pFuFgz-WHhLCR6n6L1xY-34" vertex="1">
          <mxGeometry y="138" width="370" height="122" as="geometry" />
        </mxCell>
        <mxCell id="pFuFgz-WHhLCR6n6L1xY-44" value="" style="endArrow=block;endSize=16;endFill=0;html=1;rounded=0;fontSize=14;exitX=0.677;exitY=-0.015;exitDx=0;exitDy=0;exitPerimeter=0;" parent="1" source="pFuFgz-WHhLCR6n6L1xY-34" edge="1">
          <mxGeometry x="0.2579" y="49" width="160" relative="1" as="geometry">
            <mxPoint x="400" y="500" as="sourcePoint" />
            <mxPoint x="540" y="470" as="targetPoint" />
            <Array as="points" />
            <mxPoint as="offset" />
          </mxGeometry>
        </mxCell>
      </root>
    </mxGraphModel>
  </diagram>
</mxfile>
